<svg viewBox="0 0 23 22" fill="none" xmlns="http://www.w3.org/2000/svg"><g clip-path="url(#a)"><path d="M19.8127 3.52002H3.18725C1.70557 3.52002.5 4.72559.5 6.20727v9.56093c0 1.4817 1.20557 2.6873 2.68725 2.6873H19.8127c1.4817 0 2.6873-1.2056 2.6873-2.6873V6.20756c.0003-1.48197-1.2053-2.68754-2.6873-2.68754Zm-1.313 1.75313L11.5 9.78278 4.50035 5.27315H18.4997Zm1.313 11.42955H3.18725c-.51512 0-.93412-.4193-.93412-.9342V6.25724l8.70607 5.59836c.0116.0073.0242.0122.0362.0189a.82344.82344 0 0 0 .0383.0202c.0675.0348.137.0628.208.0812.0073.0021.0146.003.0219.0047.078.0184.1569.0298.2358.0298h.0018c.0789 0 .1578-.0111.2358-.0298.0073-.0017.0146-.0026.0219-.0047.071-.0184.1402-.0464.208-.0812a.82344.82344 0 0 0 .0383-.0202c.012-.0067.0245-.0116.0362-.0189l8.7061-5.59836v9.51096c-.0003.5152-.4196.9345-.9348.9345Z" fill="#DB4437"/></g><defs><clipPath id="a"><path fill="#fff" d="M.5 0h22v22H.5z"/></clipPath></defs></svg>