<svg viewBox="0 0 23 21" fill="none" xmlns="http://www.w3.org/2000/svg"><path d="M11.4634 1.23199c-5.19605 0-9.42336 3.73531-9.42336 8.326 0 2.23051 1.02526 4.37111 2.827 5.93471v3.8086l3.84479-1.787c.9037.2445 1.82807.3697 2.75157.3697 5.196 0 9.4233-3.7353 9.4233-8.32601 0-4.59069-4.2273-8.326-9.4233-8.326Zm0 1.75285c4.1566 0 7.5386 2.94915 7.5386 6.57315 0 3.62401-3.382 6.57321-7.5386 6.57321-.7435 0-1.49299-.1015-2.22519-.2996l-.70859-.1917-.66073.3064-1.11718.5204v-1.7358l-.60001-.5186c-1.41538-1.2288-2.22699-2.926-2.22699-4.65431 0-3.624 3.38203-6.57315 7.53869-6.57315Zm-.9424 4.3821L5.80937 11.749l4.24053-1.7528 2.3558 1.7528 4.7117-4.38206-4.2405 1.75284-2.3559-1.75284Z" fill="#1877F2"/></svg>