<svg viewBox="0 0 23 22" fill="none" xmlns="http://www.w3.org/2000/svg"><g clip-path="url(#a)"><path d="M20.455 1.32177c-.3105.01356-.5954.1032-.8457.20224-.2313.09142-1.0617.44179-2.384.99854-1.3223.55676-3.0745 1.29494-4.9421 2.08346C8.54785 6.18305 4.35031 7.95702 2.1995 8.86562c-.07386.03089-.37382.12308-.70512.37709-.33206.2546-.70092.80719-.70092 1.41149 0 .4874.24241.9839.53513 1.2681.29273.2843.58939.4172.83734.5162v-.0021c.83811.3352 3.341 1.3405 3.93693 1.5799.21138.6359 1.11882 3.3581 1.33469 4.0427h-.0021c.15259.4845.30132.8002.50786 1.0638.10327.1318.22653.2512.37774.3455.05802.0362.12225.0642.18677.0906.009.0038.01826.0048.02729.0084l-.02519-.0063c.01871.0075.0355.0187.05457.0253.03106.0107.0526.0104.09443.0189.14721.0455.29415.0759.43021.0759.58409 0 .94227-.3181.94227-.3181l.0231-.0169 2.5225-2.1424 3.0891 2.8692c.0564.08.4984.6804 1.5214.6804.6105 0 1.0931-.3033 1.4019-.6214.3088-.3182.5011-.6437.5876-1.0849l.0021-.0021c.0689-.3562 3.0261-15.26258 3.0261-15.26258l-.0063.02528c.0921-.4124.1193-.81121.0105-1.21763-.1087-.40642-.4021-.80305-.7555-1.01119-.3533-.20813-.6884-.27056-.9989-.25701Zm-.4239 2.36154c-.1169.58894-2.7659 13.94849-2.9296 14.78649l-4.4616-4.1438-3.01563 2.5596.83523-3.278s5.7619-5.85472 6.109-6.19555c.2793-.27289.3378-.36855.3378-.46346 0-.1262-.0647-.21699-.214-.21699-.1343 0-.3167.1292-.4134.1896-1.2289.76904-6.4627 3.7631-9.03652 5.2329-.15489-.0624-2.48037-.9998-3.73337-1.5021 2.22874-.94156 6.04918-2.5551 9.60729-4.05733 1.8673-.78838 3.619-1.52723 4.94-2.08346 1.1152-.46952 1.6969-.71263 1.9748-.8279ZM17.07 18.6235h.0021l-.0021.0064c.0014-.007-.001-.0009 0-.0064Z" fill="#08C"/></g><defs><clipPath id="a"><path fill="#fff" d="M.5 0h22v22H.5z"/></clipPath></defs></svg>