<svg viewBox="0 0 23 22" fill="none" xmlns="http://www.w3.org/2000/svg"><path fill-rule="evenodd" clip-rule="evenodd" d="M15.9429 12.9213c-.2372-.1199-1.405-.6988-1.6212-.78-.2171-.0792-.3749-.1198-.5346.1208-.1578.2397-.6113.7799-.7499.9394-.1387.1604-.2774.1798-.5146.0609-.2372-.1217-1.0017-.3743-1.9067-1.1902-.70526-.6361-1.1824-1.4207-1.32016-1.6613-.13868-.2397-.01551-.3687.104-.48858.10674-.10694.2372-.28026.35581-.41947.1186-.14013.15783-.23969.2372-.40103.07935-.15948.03925-.29869-.02007-.41946-.0593-.11985-.53371-1.29988-.73168-1.7802-.19159-.4674-.38774-.40287-.5328-.41116a10.1476 10.1476 0 0 0-.45525-.0083.862.862 0 0 0-.34731.08327.87044.87044 0 0 0-.28493.21727c-.21804.23969-.83021.81957-.83021 1.99961 0 1.17911.84937 2.31855.96797 2.47995.11861.1595 1.6732 2.5813 4.05253 3.6184.5666.2471 1.0081.3946 1.3521.5043.5683.1835 1.0856.1577 1.4944.0959.4552-.0691 1.4031-.5808 1.6011-1.1404.198-.5596.198-1.0399.1387-1.1395-.0594-.1005-.2163-.1595-.4544-.2802Zm-4.328 5.9721h-.0037c-1.4134.0002-2.80089-.3839-4.01694-1.1119l-.28739-.1724-2.98694.7929.79737-2.9437-.18794-.3014c-.79025-1.2712-1.20839-2.7424-1.20609-4.2435.00183-4.39567 3.54164-7.97265 7.89433-7.97265 2.1075 0 4.089.83063 5.5788 2.33794.7345.73942 1.3165 1.61866 1.7125 2.58686.3961.96833.5983 2.00645.5948 3.05425-.0018 4.3957-3.5407 7.9736-7.8898 7.9736h.001Zm6.7146-14.75971c-.8795-.89474-1.9261-1.60418-3.079-2.08719-1.1527-.48285-2.3888-.72977-3.6366-.72646-5.23212 0-9.49175 4.30344-9.49358 9.59236 0 1.6917.43609 3.3419 1.26722 4.7958L2.04004 20.68l5.03237-1.334c1.39198.7663 2.95179 1.1679 4.53699 1.1681h.0045c5.2313 0 9.4909-4.3035 9.4928-9.5943.0039-1.26038-.2395-2.50905-.7162-3.67377-.4769-1.165-1.1777-2.22286-2.0619-3.11234h.0009Z" fill="#25D366"/></svg>